<?xml version="1.0" encoding="utf-8" standalone="no"?>
<!DOCTYPE svg PUBLIC "-//W3C//DTD SVG 1.1//EN"
  "http://www.w3.org/Graphics/SVG/1.1/DTD/svg11.dtd">
<svg xmlns:xlink="http://www.w3.org/1999/xlink" width="979.2pt" height="345.6pt" viewBox="0 0 979.2 345.6" xmlns="http://www.w3.org/2000/svg" version="1.1">
 <metadata>
  <rdf:RDF xmlns:dc="http://purl.org/dc/elements/1.1/" xmlns:cc="http://creativecommons.org/ns#" xmlns:rdf="http://www.w3.org/1999/02/22-rdf-syntax-ns#">
   <cc:Work>
    <dc:type rdf:resource="http://purl.org/dc/dcmitype/StillImage"/>
    <dc:date>2026-09-11T23:47:00.279494</dc:date>
    <dc:format>image/svg+xml</dc:format>
    <dc:creator>
     <cc:Agent>
      <dc:title>Matplotlib v3.10.3, https://matplotlib.org/</dc:title>
     </cc:Agent>
    </dc:creator>
   </cc:Work>
  </rdf:RDF>
 </metadata>
 <defs>
  <style type="text/css">*{stroke-linejoin: round; stroke-linecap: butt}</style>
 </defs>
 <g id="figure_1">
  <g id="patch_1">
   <path d="M 0 345.6 
L 979.2 345.6 
L 979.2 0 
L 0 0 
z
" style="fill: #ffffff"/>
  </g>
  <g id="axes_1">
   <g id="patch_2">
    <path d="M 44.57 303.64 
L 443.273956 303.64 
L 443.273956 26.88 
L 44.57 26.88 
z
" style="fill: #ffffff"/>
   </g>
   <g id="matplotlib.axis_1">
    <g id="xtick_1">
     <g id="line2d_1">
      <defs>
       <path id="mf23ea3208b" d="M 0 0 
L 0 3.5 
" style="stroke: #51617a; stroke-width: 0.8"/>
      </defs>
      <g>
       <use xlink:href="#mf23ea3208b" x="56.220454" y="303.64" style="fill: #51617a; stroke: #51617a; stroke-width: 0.8"/>
      </g>
     </g>
     <g id="text_1">
      <text style="font-size: 10px; font-family: 'DejaVu Sans'; text-anchor: middle; fill: #51617a" x="56.220454" y="318.238437" transform="rotate(-0 56.220454 318.238437)">0</text>
     </g>
    </g>
    <g id="xtick_2">
     <g id="line2d_2">
      <g>
       <use xlink:href="#mf23ea3208b" x="133.377955" y="303.64" style="fill: #51617a; stroke: #51617a; stroke-width: 0.8"/>
      </g>
     </g>
     <g id="text_2">
      <text style="font-size: 10px; font-family: 'DejaVu Sans'; text-anchor: middle; fill: #51617a" x="133.377955" y="318.238437" transform="rotate(-0 133.377955 318.238437)">100</text>
     </g>
    </g>
    <g id="xtick_3">
     <g id="line2d_3">
      <g>
       <use xlink:href="#mf23ea3208b" x="210.535457" y="303.64" style="fill: #51617a; stroke: #51617a; stroke-width: 0.8"/>
      </g>
     </g>
     <g id="text_3">
      <text style="font-size: 10px; font-family: 'DejaVu Sans'; text-anchor: middle; fill: #51617a" x="210.535457" y="318.238437" transform="rotate(-0 210.535457 318.238437)">200</text>
     </g>
    </g>
    <g id="xtick_4">
     <g id="line2d_4">
      <g>
       <use xlink:href="#mf23ea3208b" x="287.692959" y="303.64" style="fill: #51617a; stroke: #51617a; stroke-width: 0.8"/>
      </g>
     </g>
     <g id="text_4">
      <text style="font-size: 10px; font-family: 'DejaVu Sans'; text-anchor: middle; fill: #51617a" x="287.692959" y="318.238437" transform="rotate(-0 287.692959 318.238437)">300</text>
     </g>
    </g>
    <g id="xtick_5">
     <g id="line2d_5">
      <g>
       <use xlink:href="#mf23ea3208b" x="364.850461" y="303.64" style="fill: #51617a; stroke: #51617a; stroke-width: 0.8"/>
      </g>
     </g>
     <g id="text_5">
      <text style="font-size: 10px; font-family: 'DejaVu Sans'; text-anchor: middle; fill: #51617a" x="364.850461" y="318.238437" transform="rotate(-0 364.850461 318.238437)">400</text>
     </g>
    </g>
    <g id="xtick_6">
     <g id="line2d_6">
      <g>
       <use xlink:href="#mf23ea3208b" x="442.007963" y="303.64" style="fill: #51617a; stroke: #51617a; stroke-width: 0.8"/>
      </g>
     </g>
     <g id="text_6">
      <text style="font-size: 10px; font-family: 'DejaVu Sans'; text-anchor: middle; fill: #51617a" x="442.007963" y="318.238437" transform="rotate(-0 442.007963 318.238437)">500</text>
     </g>
    </g>
    <g id="text_7">
     <text style="font-size: 10px; font-family: 'DejaVu Sans'; text-anchor: middle; fill: #183f83" x="243.921978" y="331.916562" transform="rotate(-0 243.921978 331.916562)">Cumulative training decisions (millions)</text>
    </g>
   </g>
   <g id="matplotlib.axis_2">
    <g id="ytick_1">
     <g id="line2d_7">
      <path d="M 44.57 274.197447 
L 443.273956 274.197447 
" clip-path="url(#p1ff4d7a81f)" style="fill: none; stroke: #b0b0b0; stroke-opacity: 0.15; stroke-width: 0.8; stroke-linecap: square"/>
     </g>
     <g id="line2d_8">
      <defs>
       <path id="m26a619fd09" d="M 0 0 
L -3.5 0 
" style="stroke: #51617a; stroke-width: 0.8"/>
      </defs>
      <g>
       <use xlink:href="#m26a619fd09" x="44.57" y="274.197447" style="fill: #51617a; stroke: #51617a; stroke-width: 0.8"/>
      </g>
     </g>
     <g id="text_8">
      <text style="font-size: 10px; font-family: 'DejaVu Sans'; text-anchor: end; fill: #51617a" x="37.57" y="277.996666" transform="rotate(-0 37.57 277.996666)">50</text>
     </g>
    </g>
    <g id="ytick_2">
     <g id="line2d_9">
      <path d="M 44.57 215.31234 
L 443.273956 215.31234 
" clip-path="url(#p1ff4d7a81f)" style="fill: none; stroke: #b0b0b0; stroke-opacity: 0.15; stroke-width: 0.8; stroke-linecap: square"/>
     </g>
     <g id="line2d_10">
      <g>
       <use xlink:href="#m26a619fd09" x="44.57" y="215.31234" style="fill: #51617a; stroke: #51617a; stroke-width: 0.8"/>
      </g>
     </g>
     <g id="text_9">
      <text style="font-size: 10px; font-family: 'DejaVu Sans'; text-anchor: end; fill: #51617a" x="37.57" y="219.111559" transform="rotate(-0 37.57 219.111559)">60</text>
     </g>
    </g>
    <g id="ytick_3">
     <g id="line2d_11">
      <path d="M 44.57 156.427234 
L 443.273956 156.427234 
" clip-path="url(#p1ff4d7a81f)" style="fill: none; stroke: #b0b0b0; stroke-opacity: 0.15; stroke-width: 0.8; stroke-linecap: square"/>
     </g>
     <g id="line2d_12">
      <g>
       <use xlink:href="#m26a619fd09" x="44.57" y="156.427234" style="fill: #51617a; stroke: #51617a; stroke-width: 0.8"/>
      </g>
     </g>
     <g id="text_10">
      <text style="font-size: 10px; font-family: 'DejaVu Sans'; text-anchor: end; fill: #51617a" x="37.57" y="160.226453" transform="rotate(-0 37.57 160.226453)">70</text>
     </g>
    </g>
    <g id="ytick_4">
     <g id="line2d_13">
      <path d="M 44.57 97.542128 
L 443.273956 97.542128 
" clip-path="url(#p1ff4d7a81f)" style="fill: none; stroke: #b0b0b0; stroke-opacity: 0.15; stroke-width: 0.8; stroke-linecap: square"/>
     </g>
     <g id="line2d_14">
      <g>
       <use xlink:href="#m26a619fd09" x="44.57" y="97.542128" style="fill: #51617a; stroke: #51617a; stroke-width: 0.8"/>
      </g>
     </g>
     <g id="text_11">
      <text style="font-size: 10px; font-family: 'DejaVu Sans'; text-anchor: end; fill: #51617a" x="37.57" y="101.341346" transform="rotate(-0 37.57 101.341346)">80</text>
     </g>
    </g>
    <g id="ytick_5">
     <g id="line2d_15">
      <path d="M 44.57 38.657021 
L 443.273956 38.657021 
" clip-path="url(#p1ff4d7a81f)" style="fill: none; stroke: #b0b0b0; stroke-opacity: 0.15; stroke-width: 0.8; stroke-linecap: square"/>
     </g>
     <g id="line2d_16">
      <g>
       <use xlink:href="#m26a619fd09" x="44.57" y="38.657021" style="fill: #51617a; stroke: #51617a; stroke-width: 0.8"/>
      </g>
     </g>
     <g id="text_12">
      <text style="font-size: 10px; font-family: 'DejaVu Sans'; text-anchor: end; fill: #51617a" x="37.57" y="42.45624" transform="rotate(-0 37.57 42.45624)">90</text>
     </g>
    </g>
    <g id="text_13">
     <text style="font-size: 10px; font-family: 'DejaVu Sans'; text-anchor: middle; fill: #183f83" x="18.765313" y="165.26" transform="rotate(-90 18.765313 165.26)">Arena-weighted BC-opponent score (%)</text>
    </g>
   </g>
   <g id="line2d_17">
    <path d="M 62.692907 259.947251 
L 69.165401 249.701243 
L 75.637905 227.560443 
L 82.110416 216.254502 
L 88.582882 204.477481 
L 95.055371 194.761438 
L 101.527866 178.86246 
L 108.000324 169.853038 
L 114.472785 176.153745 
L 120.945252 155.485072 
L 127.417719 154.601796 
L 133.89021 149.832102 
L 140.362663 143.35474 
L 146.835118 130.400017 
L 153.307568 135.405251 
L 159.78004 129.340085 
L 166.252528 119.800698 
L 172.724989 119.035191 
L 179.197434 119.388502 
L 185.669879 117.563064 
L 192.142343 114.147728 
L 198.614801 105.314962 
L 205.087246 115.796511 
L 211.559695 112.6756 
L 218.032154 102.194051 
L 224.504646 103.195098 
L 230.977115 105.786043 
L 237.449591 104.13726 
L 243.922065 107.25817 
L 250.394543 100.309728 
L 256.867025 98.8376 
L 263.339478 96.246655 
L 269.811922 92.713549 
L 276.284384 97.365472 
L 282.75684 97.954323 
L 289.229322 87.060579 
L 295.701769 99.720877 
L 302.174263 90.063719 
L 308.646719 91.535847 
L 315.119176 96.482196 
L 321.591622 88.886017 
L 328.064073 94.362332 
L 334.536519 84.88183 
L 341.008988 85.941762 
L 347.481434 89.769294 
L 353.953883 90.888111 
L 360.426378 87.001694 
L 366.898834 78.227813 
L 373.371304 80.936528 
L 379.843772 94.597872 
L 386.316237 87.413889 
L 392.788687 87.178349 
L 399.26117 82.585311 
L 405.733633 90.946996 
L 412.206099 88.768247 
L 418.678578 79.405515 
L 425.151049 84.116323 
" clip-path="url(#p1ff4d7a81f)" style="fill: none; stroke: #0877f9; stroke-width: 2; stroke-linecap: square"/>
   </g>
   <g id="patch_3">
    <path d="M 44.57 303.64 
L 44.57 26.88 
" style="fill: none; stroke: #c8d1df; stroke-width: 0.8; stroke-linejoin: miter; stroke-linecap: square"/>
   </g>
   <g id="patch_4">
    <path d="M 44.57 303.64 
L 443.273956 303.64 
" style="fill: none; stroke: #c8d1df; stroke-width: 0.8; stroke-linejoin: miter; stroke-linecap: square"/>
   </g>
   <g id="patch_5">
    <path d="M 251.866179 74.309032 
Q 308.383764 76.234398 364.901349 78.159765 
" style="fill: none; stroke: #8792b0; stroke-linecap: round"/>
   </g>
   <g id="text_14">
    <text style="font-size: 9px; font-family: 'DejaVu Sans'; fill: #092354" transform="translate(141.093706 69.798564)">Update 48: 83.3%</text>
    <text style="font-size: 9px; font-family: 'DejaVu Sans'; fill: #092354" transform="translate(141.093706 79.876596)">403M decisions · 47.4 h</text>
   </g>
   <g id="text_15">
    <text style="font-size: 12px; font-family: 'DejaVu Sans'; text-anchor: middle; fill: #092354" x="243.921978" y="20.88" transform="rotate(-0 243.921978 20.88)">A  Training progress · rollout 8.39M</text>
   </g>
   <g id="PathCollection_1">
    <defs>
     <path id="m08a1a3d676" d="M 0 3 
C 0.795609 3 1.55874 2.683901 2.12132 2.12132 
C 2.683901 1.55874 3 0.795609 3 0 
C 3 -0.795609 2.683901 -1.55874 2.12132 -2.12132 
C 1.55874 -2.683901 0.795609 -3 0 -3 
C -0.795609 -3 -1.55874 -2.683901 -2.12132 -2.12132 
C -2.683901 -1.55874 -3 -0.795609 -3 0 
C -3 0.795609 -2.683901 1.55874 -2.12132 2.12132 
C -1.55874 2.683901 -0.795609 3 0 3 
z
" style="stroke: #770dfa"/>
    </defs>
    <g clip-path="url(#p1ff4d7a81f)">
     <use xlink:href="#m08a1a3d676" x="366.898834" y="78.227813" style="fill: #770dfa; stroke: #770dfa"/>
    </g>
   </g>
  </g>
  <g id="axes_2">
   <g id="patch_6">
    <path d="M 588.681946 303.64 
L 968.4 303.64 
L 968.4 26.88 
L 588.681946 26.88 
z
" style="fill: #ffffff"/>
   </g>
   <g id="matplotlib.axis_3">
    <g id="xtick_7">
     <g id="line2d_18">
      <path d="M 588.681946 303.64 
L 588.681946 26.88 
" clip-path="url(#p5f02fe7c01)" style="fill: none; stroke: #b0b0b0; stroke-opacity: 0.15; stroke-width: 0.8; stroke-linecap: square"/>
     </g>
     <g id="line2d_19">
      <g>
       <use xlink:href="#mf23ea3208b" x="588.681946" y="303.64" style="fill: #51617a; stroke: #51617a; stroke-width: 0.8"/>
      </g>
     </g>
     <g id="text_16">
      <text style="font-size: 10px; font-family: 'DejaVu Sans'; text-anchor: middle; fill: #51617a" x="588.681946" y="318.238437" transform="rotate(-0 588.681946 318.238437)">40</text>
     </g>
    </g>
    <g id="xtick_8">
     <g id="line2d_20">
      <path d="M 680.180272 303.64 
L 680.180272 26.88 
" clip-path="url(#p5f02fe7c01)" style="fill: none; stroke: #b0b0b0; stroke-opacity: 0.15; stroke-width: 0.8; stroke-linecap: square"/>
     </g>
     <g id="line2d_21">
      <g>
       <use xlink:href="#mf23ea3208b" x="680.180272" y="303.64" style="fill: #51617a; stroke: #51617a; stroke-width: 0.8"/>
      </g>
     </g>
     <g id="text_17">
      <text style="font-size: 10px; font-family: 'DejaVu Sans'; text-anchor: middle; fill: #51617a" x="680.180272" y="318.238437" transform="rotate(-0 680.180272 318.238437)">60</text>
     </g>
    </g>
    <g id="xtick_9">
     <g id="line2d_22">
      <path d="M 771.678599 303.64 
L 771.678599 26.88 
" clip-path="url(#p5f02fe7c01)" style="fill: none; stroke: #b0b0b0; stroke-opacity: 0.15; stroke-width: 0.8; stroke-linecap: square"/>
     </g>
     <g id="line2d_23">
      <g>
       <use xlink:href="#mf23ea3208b" x="771.678599" y="303.64" style="fill: #51617a; stroke: #51617a; stroke-width: 0.8"/>
      </g>
     </g>
     <g id="text_18">
      <text style="font-size: 10px; font-family: 'DejaVu Sans'; text-anchor: middle; fill: #51617a" x="771.678599" y="318.238437" transform="rotate(-0 771.678599 318.238437)">80</text>
     </g>
    </g>
    <g id="xtick_10">
     <g id="line2d_24">
      <path d="M 863.176925 303.64 
L 863.176925 26.88 
" clip-path="url(#p5f02fe7c01)" style="fill: none; stroke: #b0b0b0; stroke-opacity: 0.15; stroke-width: 0.8; stroke-linecap: square"/>
     </g>
     <g id="line2d_25">
      <g>
       <use xlink:href="#mf23ea3208b" x="863.176925" y="303.64" style="fill: #51617a; stroke: #51617a; stroke-width: 0.8"/>
      </g>
     </g>
     <g id="text_19">
      <text style="font-size: 10px; font-family: 'DejaVu Sans'; text-anchor: middle; fill: #51617a" x="863.176925" y="318.238437" transform="rotate(-0 863.176925 318.238437)">100</text>
     </g>
    </g>
    <g id="text_20">
     <text style="font-size: 10px; font-family: 'DejaVu Sans'; text-anchor: middle; fill: #183f83" x="778.540973" y="331.916562" transform="rotate(-0 778.540973 331.916562)">Score by turn order (%) · first / second</text>
    </g>
   </g>
   <g id="matplotlib.axis_4">
    <g id="ytick_6">
     <g id="line2d_26">
      <g>
       <use xlink:href="#m26a619fd09" x="588.681946" y="68.715814" style="fill: #51617a; stroke: #51617a; stroke-width: 0.8"/>
      </g>
     </g>
     <g id="text_21">
      <text style="font-size: 10px; font-family: 'DejaVu Sans'; fill: #51617a" transform="translate(531.881946 67.67597)">Dragapult</text>
      <text style="font-size: 10px; font-family: 'DejaVu Sans'; fill: #51617a" transform="translate(524.171009 78.873783)">(n=16,277)</text>
     </g>
    </g>
    <g id="ytick_7">
     <g id="line2d_27">
      <g>
       <use xlink:href="#m26a619fd09" x="588.681946" y="133.078605" style="fill: #51617a; stroke: #51617a; stroke-width: 0.8"/>
      </g>
     </g>
     <g id="text_22">
      <text style="font-size: 10px; font-family: 'DejaVu Sans'; fill: #51617a" transform="translate(481.738196 132.038761)">Ogerpon–Hydrapple</text>
      <text style="font-size: 10px; font-family: 'DejaVu Sans'; fill: #51617a" transform="translate(530.533509 143.236573)">(n=7,116)</text>
     </g>
    </g>
    <g id="ytick_8">
     <g id="line2d_28">
      <g>
       <use xlink:href="#m26a619fd09" x="588.681946" y="197.441395" style="fill: #51617a; stroke: #51617a; stroke-width: 0.8"/>
      </g>
     </g>
     <g id="text_23">
      <text style="font-size: 10px; font-family: 'DejaVu Sans'; fill: #51617a" transform="translate(508.450696 196.401552)">Mega Lopunny</text>
      <text style="font-size: 10px; font-family: 'DejaVu Sans'; fill: #51617a" transform="translate(524.171009 207.599364)">(n=14,314)</text>
     </g>
    </g>
    <g id="ytick_9">
     <g id="line2d_29">
      <g>
       <use xlink:href="#m26a619fd09" x="588.681946" y="261.804186" style="fill: #51617a; stroke: #51617a; stroke-width: 0.8"/>
      </g>
     </g>
     <g id="text_24">
      <text style="font-size: 10px; font-family: 'DejaVu Sans'; fill: #51617a" transform="translate(533.074134 260.764342)">Alakazam</text>
      <text style="font-size: 10px; font-family: 'DejaVu Sans'; fill: #51617a" transform="translate(524.171009 271.962155)">(n=12,466)</text>
     </g>
    </g>
   </g>
   <g id="line2d_30">
    <path d="M 789.520772 68.715814 
L 788.605789 68.715814 
" clip-path="url(#p5f02fe7c01)" style="fill: none; stroke: #c3ccd9; stroke-width: 2; stroke-linecap: square"/>
   </g>
   <g id="line2d_31">
    <path d="M 772.13609 133.078605 
L 761.613783 133.078605 
" clip-path="url(#p5f02fe7c01)" style="fill: none; stroke: #c3ccd9; stroke-width: 2; stroke-linecap: square"/>
   </g>
   <g id="line2d_32">
    <path d="M 827.035086 197.441395 
L 816.512778 197.441395 
" clip-path="url(#p5f02fe7c01)" style="fill: none; stroke: #c3ccd9; stroke-width: 2; stroke-linecap: square"/>
   </g>
   <g id="line2d_33">
    <path d="M 696.19248 261.804186 
L 637.176059 261.804186 
" clip-path="url(#p5f02fe7c01)" style="fill: none; stroke: #c3ccd9; stroke-width: 2; stroke-linecap: square"/>
   </g>
   <g id="patch_7">
    <path d="M 588.681946 303.64 
L 588.681946 26.88 
" style="fill: none; stroke: #c8d1df; stroke-width: 0.8; stroke-linejoin: miter; stroke-linecap: square"/>
   </g>
   <g id="patch_8">
    <path d="M 588.681946 303.64 
L 968.4 303.64 
" style="fill: none; stroke: #c8d1df; stroke-width: 0.8; stroke-linejoin: miter; stroke-linecap: square"/>
   </g>
   <g id="PathCollection_2">
    <defs>
     <path id="ma87c52cf22" d="M 0 3.354102 
C 0.889518 3.354102 1.742724 3.000693 2.371708 2.371708 
C 3.000693 1.742724 3.354102 0.889518 3.354102 0 
C 3.354102 -0.889518 3.000693 -1.742724 2.371708 -2.371708 
C 1.742724 -3.000693 0.889518 -3.354102 0 -3.354102 
C -0.889518 -3.354102 -1.742724 -3.000693 -2.371708 -2.371708 
C -3.000693 -1.742724 -3.354102 -0.889518 -3.354102 0 
C -3.354102 0.889518 -3.000693 1.742724 -2.371708 2.371708 
C -1.742724 3.000693 -0.889518 3.354102 0 3.354102 
z
" style="stroke: #009bab"/>
    </defs>
    <g clip-path="url(#p5f02fe7c01)">
     <use xlink:href="#ma87c52cf22" x="789.520772" y="68.715814" style="fill: #009bab; stroke: #009bab"/>
    </g>
   </g>
   <g id="PathCollection_3">
    <defs>
     <path id="md48e2be1f7" d="M -3 3 
L 3 3 
L 3 -3 
L -3 -3 
z
" style="stroke: #770dfa"/>
    </defs>
    <g clip-path="url(#p5f02fe7c01)">
     <use xlink:href="#md48e2be1f7" x="788.605789" y="68.715814" style="fill: #770dfa; stroke: #770dfa"/>
    </g>
   </g>
   <g id="text_25">
    <text style="font-size: 9px; font-family: 'DejaVu Sans'; text-anchor: end; fill: #092354" x="959.250167" y="71.199251" transform="rotate(-0 959.250167 71.199251)">83.9 / 83.7</text>
   </g>
   <g id="PathCollection_4">
    <g clip-path="url(#p5f02fe7c01)">
     <use xlink:href="#ma87c52cf22" x="772.13609" y="133.078605" style="fill: #009bab; stroke: #009bab"/>
    </g>
   </g>
   <g id="PathCollection_5">
    <g clip-path="url(#p5f02fe7c01)">
     <use xlink:href="#md48e2be1f7" x="761.613783" y="133.078605" style="fill: #770dfa; stroke: #770dfa"/>
    </g>
   </g>
   <g id="text_26">
    <text style="font-size: 9px; font-family: 'DejaVu Sans'; text-anchor: end; fill: #092354" x="959.250167" y="135.562042" transform="rotate(-0 959.250167 135.562042)">80.1 / 77.8</text>
   </g>
   <g id="PathCollection_6">
    <g clip-path="url(#p5f02fe7c01)">
     <use xlink:href="#ma87c52cf22" x="827.035086" y="197.441395" style="fill: #009bab; stroke: #009bab"/>
    </g>
   </g>
   <g id="PathCollection_7">
    <g clip-path="url(#p5f02fe7c01)">
     <use xlink:href="#md48e2be1f7" x="816.512778" y="197.441395" style="fill: #770dfa; stroke: #770dfa"/>
    </g>
   </g>
   <g id="text_27">
    <text style="font-size: 9px; font-family: 'DejaVu Sans'; text-anchor: end; fill: #092354" x="959.250167" y="199.924833" transform="rotate(-0 959.250167 199.924833)">92.1 / 89.8</text>
   </g>
   <g id="PathCollection_8">
    <g clip-path="url(#p5f02fe7c01)">
     <use xlink:href="#ma87c52cf22" x="696.19248" y="261.804186" style="fill: #009bab; stroke: #009bab"/>
    </g>
   </g>
   <g id="PathCollection_9">
    <g clip-path="url(#p5f02fe7c01)">
     <use xlink:href="#md48e2be1f7" x="637.176059" y="261.804186" style="fill: #770dfa; stroke: #770dfa"/>
    </g>
   </g>
   <g id="text_28">
    <text style="font-size: 9px; font-family: 'DejaVu Sans'; text-anchor: end; fill: #092354" x="959.250167" y="264.287624" transform="rotate(-0 959.250167 264.287624)">63.5 / 50.6</text>
   </g>
   <g id="text_29">
    <text style="font-size: 12px; font-family: 'DejaVu Sans'; text-anchor: middle; fill: #092354" x="778.540973" y="20.88" transform="rotate(-0 778.540973 20.88)">B  Rollout diagnostics at update 48</text>
   </g>
   <g id="legend_1">
    <g id="PathCollection_10">
     <g>
      <use xlink:href="#ma87c52cf22" x="607.681946" y="289.935312" style="fill: #009bab; stroke: #009bab"/>
     </g>
    </g>
    <g id="text_30">
     <text style="font-size: 10px; font-family: 'DejaVu Sans'; text-anchor: start; fill: #092354" x="625.681946" y="292.560312" transform="rotate(-0 625.681946 292.560312)">First</text>
    </g>
    <g id="PathCollection_11">
     <g>
      <use xlink:href="#md48e2be1f7" x="676.727259" y="289.935312" style="fill: #770dfa; stroke: #770dfa"/>
     </g>
    </g>
    <g id="text_31">
     <text style="font-size: 10px; font-family: 'DejaVu Sans'; text-anchor: start; fill: #092354" x="694.727259" y="292.560312" transform="rotate(-0 694.727259 292.560312)">Second</text>
    </g>
   </g>
  </g>
 </g>
 <defs>
  <clipPath id="p1ff4d7a81f">
   <rect x="44.57" y="26.88" width="398.703956" height="276.76"/>
  </clipPath>
  <clipPath id="p5f02fe7c01">
   <rect x="588.681946" y="26.88" width="379.718054" height="276.76"/>
  </clipPath>
 </defs>
</svg>
